<svg version="1.1" id="Layer_1" xmlns="http://www.w3.org/2000/svg" xmlns:xlink="http://www.w3.org/1999/xlink" x="0px" y="0px"
	 width="100%" viewBox="0 0 805 649" enable-background="new 0 0 805 649" xml:space="preserve">
<path fill="#000000" opacity="1.000000" stroke="none" 
	d="
M1.000000,649.000000 
	C1.000000,433.042786 1.000000,217.085571 1.000000,1.064173 
	C269.237396,1.064173 537.474792,1.064173 806.000000,1.064173 
	C806.000000,216.694611 806.000000,432.389374 805.544067,648.542358 
	C537.058777,649.000427 269.029388,649.000244 1.000000,649.000000 
M209.897812,320.620087 
	C238.629196,354.141541 267.391724,387.636414 296.032806,421.234863 
	C298.326752,423.925873 300.619110,425.189819 304.130676,424.741974 
	C312.547943,423.668518 321.114838,423.393494 329.393921,421.690552 
	C345.790863,418.317871 359.127838,410.262573 364.491913,393.361359 
	C366.778412,386.157013 367.386658,378.388824 368.370697,370.826508 
	C368.589996,369.141083 367.609497,366.893799 366.462280,365.494965 
	C325.577576,315.642273 284.623718,265.846191 243.563812,216.137741 
	C242.405991,214.736053 239.925217,213.539032 238.168945,213.671646 
	C230.049667,214.284805 221.899673,215.015289 213.891235,216.438354 
	C204.073288,218.182999 195.073486,222.168823 187.625519,229.001038 
	C174.598343,240.951172 170.999084,256.594879 170.740158,273.414307 
	C170.720840,274.669098 171.792664,276.117310 172.700592,277.183075 
	C184.908722,291.514130 197.177841,305.793182 209.897812,320.620087 
M513.237305,424.584442 
	C517.516663,425.291687 518.908203,423.748840 518.897766,419.196655 
	C518.744263,352.203827 518.793945,285.210480 518.779785,218.217285 
	C518.779480,216.782990 518.595032,215.348724 518.492615,213.858398 
	C490.584930,213.858398 463.047821,213.858398 435.601501,213.858398 
	C435.601501,284.207275 435.601501,354.126404 435.601501,424.584351 
	C461.398346,424.584351 486.848297,424.584351 513.237305,424.584442 
M544.507507,324.499725 
	C544.507507,357.771301 544.507507,391.042877 544.507507,424.811218 
	C550.766846,424.811218 556.406372,425.094849 562.008240,424.755920 
	C576.499329,423.879242 589.752686,419.582123 600.972046,409.940063 
	C614.816284,398.042267 622.099426,382.329681 626.933411,365.251831 
	C635.609863,334.598724 633.402466,303.143738 633.532349,271.869812 
	C633.536377,270.889404 633.210449,269.900543 632.987366,268.927307 
	C623.069641,225.649582 589.934448,209.985245 544.507568,214.187378 
	C544.507568,250.597717 544.507568,287.048706 544.507507,324.499725 
M327.352295,274.166138 
	C340.753571,289.052795 354.154846,303.939423 368.271118,319.620361 
	C368.271118,283.485870 368.271118,248.647507 368.271118,213.905746 
	C336.604980,213.905746 305.306763,213.905746 273.253021,213.905746 
	C291.516388,234.250900 309.196655,253.946472 327.352295,274.166138 
M233.810364,390.655609 
	C213.264435,366.802002 192.718506,342.948395 171.401871,318.200043 
	C171.401871,354.637390 171.401871,389.520172 171.401871,424.448212 
	C201.791199,424.448212 231.788818,424.448212 262.861755,424.448212 
	C252.890945,412.852020 243.580093,402.023407 233.810364,390.655609 
z"/>
<path fill="#D1D1D1" opacity="1.000000" stroke="none" 
	d="
M1.000000,649.500000 
	C269.029388,649.000244 537.058777,649.000427 805.544067,649.000366 
	C805.833313,649.333313 805.684021,649.943848 805.497192,649.955505 
	C804.169128,650.039001 802.833313,650.000000 801.500000,650.000000 
	C534.666687,650.000000 267.833344,650.000000 1.000000,649.500000 
z"/>
<path fill="#FDFDFD" opacity="1.000000" stroke="none" 
	d="
M209.664841,320.352600 
	C197.177841,305.793182 184.908722,291.514130 172.700592,277.183075 
	C171.792664,276.117310 170.720840,274.669098 170.740158,273.414307 
	C170.999084,256.594879 174.598343,240.951172 187.625519,229.001038 
	C195.073486,222.168823 204.073288,218.182999 213.891235,216.438354 
	C221.899673,215.015289 230.049667,214.284805 238.168945,213.671646 
	C239.925217,213.539032 242.405991,214.736053 243.563812,216.137741 
	C284.623718,265.846191 325.577576,315.642273 366.462280,365.494965 
	C367.609497,366.893799 368.589996,369.141083 368.370697,370.826508 
	C367.386658,378.388824 366.778412,386.157013 364.491913,393.361359 
	C359.127838,410.262573 345.790863,418.317871 329.393921,421.690552 
	C321.114838,423.393494 312.547943,423.668518 304.130676,424.741974 
	C300.619110,425.189819 298.326752,423.925873 296.032806,421.234863 
	C267.391724,387.636414 238.629196,354.141541 209.664841,320.352600 
z"/>
<path fill="#FBFBFB" opacity="1.000000" stroke="none" 
	d="
M512.767761,424.584412 
	C486.848297,424.584351 461.398346,424.584351 435.601501,424.584351 
	C435.601501,354.126404 435.601501,284.207275 435.601501,213.858398 
	C463.047821,213.858398 490.584930,213.858398 518.492615,213.858398 
	C518.595032,215.348724 518.779480,216.782990 518.779785,218.217285 
	C518.793945,285.210480 518.744263,352.203827 518.897766,419.196655 
	C518.908203,423.748840 517.516663,425.291687 512.767761,424.584412 
z"/>
<path fill="#FDFDFD" opacity="1.000000" stroke="none" 
	d="
M544.507568,323.999695 
	C544.507568,287.048706 544.507568,250.597717 544.507568,214.187378 
	C589.934448,209.985245 623.069641,225.649582 632.987366,268.927307 
	C633.210449,269.900543 633.536377,270.889404 633.532349,271.869812 
	C633.402466,303.143738 635.609863,334.598724 626.933411,365.251831 
	C622.099426,382.329681 614.816284,398.042267 600.972046,409.940063 
	C589.752686,419.582123 576.499329,423.879242 562.008240,424.755920 
	C556.406372,425.094849 550.766846,424.811218 544.507507,424.811218 
	C544.507507,391.042877 544.507507,357.771301 544.507568,323.999695 
z"/>
<path fill="#F8F8F8" opacity="1.000000" stroke="none" 
	d="
M327.114624,273.904114 
	C309.196655,253.946472 291.516388,234.250900 273.253021,213.905746 
	C305.306763,213.905746 336.604980,213.905746 368.271118,213.905746 
	C368.271118,248.647507 368.271118,283.485870 368.271118,319.620361 
	C354.154846,303.939423 340.753571,289.052795 327.114624,273.904114 
z"/>
<path fill="#FAFAFA" opacity="1.000000" stroke="none" 
	d="
M234.039795,390.925171 
	C243.580093,402.023407 252.890945,412.852020 262.861755,424.448212 
	C231.788818,424.448212 201.791199,424.448212 171.401871,424.448212 
	C171.401871,389.520172 171.401871,354.637390 171.401871,318.200043 
	C192.718506,342.948395 213.264435,366.802002 234.039795,390.925171 
z"/>
</svg>